<?xml version="1.0" standalone="no"?>
<!DOCTYPE svg PUBLIC "-//W3C//DTD SVG 20010904//EN"
 "http://www.w3.org/TR/2001/REC-SVG-20010904/DTD/svg10.dtd">
<svg version="1.0" xmlns="http://www.w3.org/2000/svg"
 width="640.000000pt" height="359.000000pt" viewBox="0 0 640.000000 359.000000"
 preserveAspectRatio="xMidYMid meet">

<g transform="translate(0.000000,359.000000) scale(0.100000,-0.100000)"
fill="#000000" stroke="none">
<path d="M0 1795 l0 -1795 3200 0 3200 0 0 1795 0 1795 -3200 0 -3200 0 0
-1795z m3329 1034 c85 -16 169 -84 91 -74 -29 3 -30 3 -16 -23 9 -18 11 -35 5
-49 -7 -19 -13 -22 -39 -17 -33 7 -36 3 -19 -28 8 -15 8 -19 0 -14 -7 4 -11 0
-11 -12 0 -28 -40 -57 -82 -59 -29 -1 -42 4 -56 22 -16 20 -22 22 -34 12 -9
-7 -18 -18 -20 -26 -3 -10 -11 -5 -26 16 l-22 31 33 69 c54 109 98 174 116
169 9 -3 45 -10 80 -17z m-371 -61 c2 -13 -4 -31 -12 -38 -13 -10 -16 -10 -16
3 0 8 -7 20 -16 28 -14 12 -14 14 2 26 24 18 38 12 42 -19z m727 -8 c19 -21
15 -47 -10 -56 -9 -4 -23 3 -34 17 -18 22 -18 26 -4 42 20 22 26 21 48 -3z
m-125 -136 c0 -8 -7 -14 -15 -14 -15 0 -21 21 -9 33 10 9 24 -2 24 -19z m60
-39 c16 -8 33 -15 37 -14 28 5 45 -5 68 -38 14 -21 25 -44 25 -53 -1 -12 -2
-12 -10 2 -12 20 -72 58 -91 58 -8 0 2 -14 21 -30 27 -23 32 -32 22 -38 -16
-11 -26 -159 -13 -181 12 -19 41 -6 41 19 0 12 5 18 10 15 6 -3 10 -15 10 -26
0 -10 6 -19 13 -19 7 0 22 -6 32 -14 18 -13 18 -14 -5 -26 -14 -7 -39 -16 -56
-20 -27 -6 -31 -5 -27 11 7 26 -17 24 -87 -7 -46 -21 -62 -24 -77 -15 -17 11
-17 11 2 9 17 -3 20 4 23 43 l3 46 -52 21 c-28 12 -55 22 -60 22 -4 0 -10 -15
-12 -32 -4 -32 -4 -32 -5 5 -1 21 -6 36 -11 33 -14 -9 -9 -76 6 -76 8 0 12
-13 10 -37 -2 -36 0 -37 48 -56 41 -16 59 -18 98 -10 26 5 47 8 47 6 0 -2 -26
-15 -57 -29 -67 -29 -94 -28 -171 9 -36 18 -52 21 -52 12 0 -7 -7 -19 -17 -26
-15 -13 -16 -9 -10 43 5 53 28 116 41 111 3 -2 6 -1 6 2 0 3 0 12 0 20 0 9 -6
12 -16 8 -22 -8 -34 16 -21 44 15 33 53 40 80 15 32 -29 47 -17 48 36 0 26 4
70 7 97 6 46 10 51 42 62 48 16 76 16 110 -2z m-516 -64 c17 -19 17 -20 -8
-36 -19 -13 -26 -26 -26 -50 0 -46 -9 -65 -27 -58 -26 10 -34 -19 -12 -43 13
-14 19 -32 17 -50 l-3 -28 -38 34 c-41 36 -58 31 -49 -16 6 -34 -14 -54 -55
-54 -26 0 -36 -5 -42 -22 -8 -20 -3 -26 33 -45 50 -27 65 -28 81 -6 8 11 17
13 26 7 29 -18 64 -10 70 16 6 23 7 23 8 -6 1 -19 11 -40 26 -54 14 -13 25
-31 25 -39 1 -14 3 -13 14 2 12 15 15 15 26 2 7 -8 17 -12 22 -9 6 4 14 0 19
-7 4 -8 14 -14 21 -14 7 0 13 -6 12 -12 -4 -45 -4 -45 -31 -39 -16 4 -68 26
-118 50 -49 24 -112 52 -140 61 -27 10 -61 25 -75 33 -14 9 -31 17 -37 18 -7
1 -33 10 -57 19 -60 23 -58 47 8 76 39 17 54 19 73 10 14 -6 21 -16 17 -22 -4
-7 -1 -10 7 -7 8 3 18 33 25 74 7 38 17 82 23 97 12 31 15 74 4 64 -7 -8 -43
21 -43 35 0 5 12 13 26 18 37 14 64 -3 59 -37 -2 -16 -4 -32 -4 -36 -1 -5 -5
-6 -9 -3 -5 3 -9 -1 -9 -9 0 -18 0 -18 31 -4 15 7 28 23 32 41 6 30 36 68 52
68 5 0 17 -9 26 -19z m138 4 c46 -12 22 -23 -31 -14 -70 11 -102 31 -41 25 25
-2 57 -7 72 -11z m-432 -55 c0 -5 -2 -10 -4 -10 -3 0 -8 5 -11 10 -3 6 -1 10
4 10 6 0 11 -4 11 -10z m1057 -46 c-9 -9 -28 6 -21 18 4 6 10 6 17 -1 6 -6 8
-13 4 -17z m-1162 -24 c3 -5 -1 -10 -9 -10 -9 0 -16 5 -16 10 0 6 4 10 9 10 6
0 13 -4 16 -10z m490 -120 c33 -34 37 -42 25 -50 -42 -28 -58 -23 -109 31 -45
49 -48 55 -30 63 10 5 19 15 19 23 0 19 39 -9 95 -67z m-512 39 c40 -21 49
-56 22 -83 -9 -8 -14 -19 -13 -23 1 -4 -3 -18 -10 -31 -7 -12 -14 -49 -15 -82
-1 -33 -5 -54 -9 -47 -4 7 -8 9 -8 5 0 -4 -11 -3 -25 2 -16 6 -25 6 -25 0 0
-6 -8 -10 -17 -11 -12 -1 -10 -3 6 -8 38 -10 49 -36 27 -60 -10 -11 -23 -18
-27 -15 -5 3 -9 -50 -9 -116 0 -105 2 -121 15 -116 9 3 31 -2 50 -11 28 -13
35 -23 35 -45 l0 -29 -32 16 c-18 9 -41 20 -50 25 -15 9 -18 6 -18 -14 0 -45
17 -72 60 -91 36 -16 41 -22 38 -49 -3 -27 -11 -33 -81 -65 -73 -32 -81 -34
-110 -21 -18 7 -49 13 -69 13 l-37 0 57 40 c76 53 85 62 37 42 -168 -70 -166
-70 -176 -55 -5 9 -8 91 -7 192 3 165 4 178 26 207 12 17 22 32 22 35 0 7 -60
36 -115 55 -36 13 -58 15 -77 9 -22 -8 -39 -4 -88 20 l-60 29 76 36 c76 36 77
36 118 20 22 -9 45 -20 50 -25 17 -14 53 -9 101 14 43 21 46 21 80 5 46 -22
45 -22 45 11 0 26 -5 30 -55 46 -30 9 -55 20 -55 24 0 4 13 13 30 20 27 12 35
11 86 -12 31 -14 60 -23 65 -20 5 3 9 32 9 64 0 63 1 65 65 92 49 21 42 20 68
7z m652 1 c12 -19 -5 -30 -30 -18 -13 6 -22 15 -19 19 7 12 41 11 49 -1z m-67
-121 c-18 -12 -24 27 -6 48 11 15 13 13 16 -12 2 -16 -2 -31 -10 -36z m569
-35 c53 -40 64 -65 68 -155 l4 -84 -8 71 c-10 79 -24 114 -47 114 -8 0 -13 4
-9 9 9 15 -61 30 -97 21 -84 -21 -85 -21 -92 3 -9 33 14 43 88 42 49 0 72 -6
93 -21z m-430 -46 c15 -12 6 -67 -14 -87 -8 -7 -23 -11 -33 -8 -11 3 -20 1
-20 -4 0 -5 -4 -9 -10 -9 -17 0 -11 20 14 47 20 21 23 31 15 50 -5 13 -9 27
-9 29 0 7 42 -6 57 -18z m233 -2 c0 -7 11 -25 25 -40 26 -28 32 -46 15 -46 -6
0 -8 -11 -4 -27 6 -22 4 -25 -10 -20 -37 14 -8 -19 37 -43 26 -14 47 -28 47
-31 0 -3 -11 -11 -25 -17 -17 -8 -25 -20 -26 -39 l-2 -28 -4 26 c-3 22 -17 32
-75 59 -57 27 -72 30 -79 19 -14 -22 -10 -47 8 -58 10 -5 15 -12 11 -16 -3 -4
-42 9 -85 28 -43 19 -95 42 -115 51 -21 8 -38 20 -38 25 0 10 67 -12 163 -53
l39 -17 -7 54 c-6 44 -4 55 9 60 9 4 16 16 16 27 0 15 5 20 18 18 17 -4 18
-10 7 -39 -5 -12 2 -20 26 -28 46 -16 47 -15 39 28 -4 21 -3 46 2 55 5 9 5 23
-2 35 -13 25 -13 44 0 36 6 -3 10 -12 10 -19z m-110 -57 c0 -5 -4 -9 -10 -9
-5 0 -10 7 -10 16 0 8 5 12 10 9 6 -3 10 -10 10 -16z m863 -59 c166 -67 217
-94 224 -117 2 -6 -13 -21 -33 -33 -35 -22 -37 -22 -65 -6 l-30 17 21 -33 c15
-26 20 -50 20 -112 0 -69 -2 -77 -15 -66 -12 10 -15 10 -15 0 0 -22 -51 -81
-78 -91 -33 -13 -125 -2 -115 14 4 7 0 8 -11 4 -9 -4 -15 -3 -12 2 7 11 -22
23 -36 14 -7 -3 -8 -1 -4 5 4 7 -3 17 -18 24 -14 6 -26 15 -26 20 0 5 -5 6
-11 3 -6 -5 -4 -12 8 -21 10 -8 -3 -5 -31 6 -27 11 -51 19 -53 16 -7 -6 56
-42 172 -96 61 -28 140 -67 178 -86 l67 -35 60 27 c33 15 60 30 60 35 0 4 -9
14 -20 22 -12 8 -18 21 -15 31 3 9 7 23 10 31 3 11 26 4 110 -35 75 -35 105
-45 105 -35 0 8 22 26 50 40 l49 25 56 -24 c44 -20 55 -29 54 -48 0 -18 -2
-20 -7 -6 -6 16 -10 16 -39 2 -18 -9 -34 -26 -37 -40 -4 -14 -11 -22 -16 -19
-22 14 -62 15 -88 2 -15 -7 -34 -12 -43 -10 -9 2 -41 -11 -70 -28 -62 -37
-109 -41 -174 -14 -22 10 -49 19 -60 20 -11 2 -69 24 -130 50 -175 75 -278
116 -282 112 -2 -2 15 -12 37 -22 22 -10 37 -22 33 -28 -4 -6 0 -8 8 -5 9 4
14 -2 15 -18 2 -20 -1 -22 -21 -14 -29 11 -40 1 -17 -16 37 -28 -44 -2 -195
62 -84 35 -155 64 -158 64 -3 0 -5 -6 -5 -13 0 -7 43 -33 95 -57 53 -23 97
-46 99 -49 3 -4 -9 -14 -25 -23 l-29 -17 6 26 c6 23 5 25 -12 18 -122 -50
-131 -50 -246 -18 -10 2 -18 0 -18 -6 0 -18 127 -53 171 -47 22 3 44 8 50 11
5 4 9 4 9 1 0 -3 -33 -22 -74 -42 l-75 -38 -70 28 -71 28 0 66 c0 65 1 68 32
85 23 13 28 21 19 26 -7 5 -22 6 -32 4 -14 -4 -19 0 -19 16 0 26 1 26 50 1 22
-11 46 -20 55 -20 14 0 57 20 105 49 8 5 30 15 48 21 26 10 32 18 32 41 0 16
4 29 10 29 5 0 6 8 3 17 -6 15 -8 15 -16 2 -8 -13 -20 -14 -60 -8 -28 5 -56
14 -64 21 -10 11 -1 12 51 10 49 -3 67 0 80 13 14 14 14 20 4 33 -11 13 -9 15
15 10 20 -4 27 -1 27 11 0 21 53 53 83 50 46 -4 57 9 57 71 0 40 5 64 18 79
22 28 60 49 90 50 13 1 101 -30 195 -69z m-1469 26 c9 3 23 1 31 -6 8 -7 28
-10 44 -8 17 2 28 1 25 -3 -5 -9 55 -31 66 -24 5 3 11 1 15 -5 4 -6 10 -8 15
-5 4 3 11 -2 14 -11 3 -8 14 -14 23 -13 31 3 44 -1 39 -10 -3 -5 2 -8 12 -7 9
0 16 -5 15 -11 -2 -7 3 -13 11 -13 7 0 19 -7 26 -15 7 -8 17 -12 24 -8 6 3 8
3 4 -2 -8 -8 15 -35 30 -35 5 0 14 -11 20 -25 6 -14 16 -25 21 -25 28 0 154
-274 134 -293 -2 -3 5 -22 16 -42 l20 -37 4 33 c2 19 5 -6 5 -55 1 -49 -1 -87
-4 -83 -4 3 -13 -1 -21 -9 -10 -9 -23 -12 -37 -7 -11 4 -31 7 -42 8 -12 1 -34
11 -49 23 -30 24 -69 37 -82 29 -5 -3 -10 -24 -11 -46 -3 -37 0 -41 42 -66 25
-15 50 -24 56 -20 6 4 22 -4 34 -17 13 -12 34 -31 47 -41 l24 -18 -35 5 c-19
2 -46 8 -60 13 -14 6 -30 8 -36 6 -7 -2 -24 7 -39 21 -15 14 -41 28 -58 32
-29 6 -47 16 -147 80 -19 12 -62 36 -94 53 -33 18 -61 33 -63 34 -1 2 13 1 31
-1 27 -3 35 0 39 15 4 16 5 15 6 -3 2 -39 36 -58 114 -63 9 0 17 -7 17 -14 0
-12 59 -47 79 -47 5 0 12 19 16 42 7 38 5 44 -21 65 -16 13 -35 23 -43 23 -8
0 -38 14 -68 30 -64 36 -90 38 -96 8 -4 -20 -4 -20 -6 4 -1 30 -39 65 -80 74
-14 4 -37 14 -51 22 -14 9 -43 26 -65 38 -23 12 -39 27 -37 36 1 8 -9 21 -23
28 -34 18 -40 45 -40 175 0 98 2 113 22 141 18 26 32 33 73 38 27 4 50 12 50
18 0 7 4 7 14 -1 7 -6 21 -9 30 -5z m976 -116 c-8 -5 -19 -10 -25 -10 -5 0 -3
5 5 10 8 5 20 10 25 10 6 0 3 -5 -5 -10z m-280 -25 l50 -25 0 -66 c0 -62 -1
-65 -17 -53 -44 34 -53 59 -23 59 26 0 26 26 1 33 -13 3 -21 -1 -24 -12 -2
-10 -10 -2 -25 26 -22 41 -27 63 -17 63 3 0 28 -11 55 -25z m288 -7 c16 -16
15 -26 -5 -37 -15 -7 -18 -4 -19 20 -1 31 5 36 24 17z m-2117 -93 c17 -30 35
-55 39 -55 5 0 45 12 89 26 92 30 121 24 121 -25 0 -24 6 -31 40 -45 22 -9 40
-19 40 -24 0 -10 -91 -48 -104 -44 -42 14 -93 44 -104 61 -7 12 -22 21 -35 21
-13 0 -28 5 -34 11 -7 7 -12 3 -15 -14 -4 -21 2 -28 49 -51 55 -27 66 -50 33
-67 -82 -42 -284 -129 -298 -129 -5 0 -13 37 -17 82 -6 69 -12 90 -41 135 -19
29 -34 57 -34 62 0 6 215 106 237 111 2 0 17 -25 34 -55z m886 -41 c-7 -7 -67
30 -67 42 0 6 15 17 33 26 l32 15 3 -39 c2 -22 1 -42 -1 -44z m1020 44 c-3 -7
-5 -2 -5 12 0 14 2 19 5 13 2 -7 2 -19 0 -25z m138 21 c12 -19 -5 -23 -22 -6
-16 16 -16 17 -1 17 9 0 20 -5 23 -11z m948 -126 c29 -56 28 -68 -2 -102 l-29
-32 -21 36 c-27 47 -27 63 6 97 15 15 28 28 30 28 1 0 9 -12 16 -27z m-1098
-43 c33 -16 52 -29 42 -30 -24 0 -117 40 -117 51 0 14 10 11 75 -21z m-2225 5
c-10 -12 -10 -20 -1 -38 7 -13 11 -44 9 -69 -3 -42 -4 -45 -25 -37 -20 7 -23
15 -23 70 0 47 4 65 18 75 23 18 37 17 22 -1z m1295 -75 c3 -5 1 -10 -4 -10
-6 0 -11 5 -11 10 0 6 2 10 4 10 3 0 8 -4 11 -10z m-1235 -10 c13 -8 13 -10
-2 -10 -9 0 -20 5 -23 10 -8 13 5 13 25 0z m1357 -54 c-4 -9 -11 -16 -16 -16
-15 0 -33 39 -26 58 5 14 8 13 27 -5 12 -13 18 -28 15 -37z m-857 -6 c0 -5 -7
-10 -16 -10 -8 0 -12 5 -9 10 3 6 10 10 16 10 5 0 9 -4 9 -10z m2490 -6 c0 -2
-9 -4 -20 -4 -11 0 -20 4 -20 9 0 5 9 7 20 4 11 -3 20 -7 20 -9z m-2554 -29
c-10 -8 -15 -19 -10 -26 7 -12 -1 -11 -51 5 -11 4 -3 -2 18 -14 21 -11 42 -18
48 -15 5 4 9 3 8 -2 -3 -19 3 -21 31 -13 21 6 43 4 70 -5 21 -7 48 -11 59 -8
19 5 111 -26 111 -37 0 -3 13 -7 29 -8 25 -2 28 1 24 22 -4 19 1 26 24 34 15
6 49 23 74 38 46 26 47 26 74 8 l28 -18 -34 -15 c-19 -8 -146 -70 -284 -137
-237 -116 -346 -164 -372 -164 -6 0 -14 14 -18 31 -7 31 -9 32 -60 14 l-20 -7
20 17 c20 17 20 17 -2 12 -16 -3 -24 0 -28 13 -3 11 -19 20 -41 23 -36 6 -64
22 -64 37 0 5 16 18 37 30 31 18 40 19 64 9 58 -23 119 -69 119 -87 0 -18 4
-18 63 -7 55 10 107 29 107 39 0 2 -9 2 -20 -1 -13 -4 -20 0 -20 10 0 8 -10
21 -22 29 l-22 15 29 16 c38 21 14 22 -26 2 -31 -17 -94 -12 -106 8 -4 6 0 8
11 4 10 -4 15 -3 11 4 -4 5 -16 7 -27 3 -15 -4 -18 -3 -13 6 5 8 4 11 -3 6
-18 -11 -57 11 -59 33 -1 16 9 26 40 40 66 30 139 52 153 47 6 -2 20 2 31 9
10 8 23 14 28 14 6 0 2 -6 -9 -14z m1019 -23 c-3 -3 -11 0 -18 7 -9 10 -8 11
6 5 10 -3 15 -9 12 -12z m-34 -19 c13 -15 12 -15 -8 -4 -24 12 -29 21 -14 21
5 0 15 -7 22 -17z m177 -11 c3 -16 -1 -20 -12 -16 -19 7 -22 48 -3 42 6 -3 13
-14 15 -26z m1046 -32 c25 -12 46 -24 46 -28 -1 -4 -23 -17 -50 -30 l-50 -24
-34 21 c-41 26 -48 26 -63 2 -11 -17 -7 -21 40 -36 63 -21 117 -21 156 -2 25
12 44 14 85 8 5 0 -4 -11 -20 -23 -16 -13 -30 -26 -32 -30 -2 -5 -9 -8 -15 -8
-7 0 -29 -16 -50 -36 -36 -34 -41 -36 -85 -30 -48 7 -42 -5 9 -17 32 -8 189
78 204 111 11 25 23 23 94 -13 l44 -22 -34 -20 c-19 -12 -97 -53 -174 -93 -77
-40 -142 -79 -145 -86 -4 -10 -11 -10 -38 3 -20 10 -31 21 -28 29 6 15 -36 39
-176 99 -49 21 -88 41 -88 46 0 5 53 36 118 69 64 33 144 76 177 95 33 19 61
35 61 35 1 0 22 -9 48 -20z m-1455 -12 c11 -15 10 -16 -13 -5 -16 8 -20 14
-13 19 6 4 12 6 12 5 0 -1 6 -10 14 -19z m2213 8 c3 3 18 7 34 9 l29 5 -25
-14 c-23 -13 -22 -14 25 -11 27 2 43 0 36 -4 -9 -6 -4 -12 18 -19 23 -8 31
-17 31 -34 0 -19 -13 -30 -65 -56 -74 -36 -85 -38 -85 -17 0 16 -45 39 -64 32
-6 -3 1 -9 16 -15 29 -12 46 -32 26 -32 -7 1 -24 7 -38 15 -14 8 -36 15 -50
15 -24 1 -24 1 -5 12 11 6 32 23 46 39 20 21 23 29 13 33 -17 7 -14 27 6 43 9
7 21 8 31 2 9 -4 19 -6 21 -3z m-1564 -59 c2 -10 -2 -25 -9 -33 -16 -19 -39 0
-39 33 0 20 4 24 22 21 13 -2 24 -11 26 -21z m-1778 -27 c-8 -5 -19 -10 -25
-10 -5 0 -3 5 5 10 8 5 20 10 25 10 6 0 3 -5 -5 -10z m1897 -50 c3 -11 10 -20
16 -20 6 0 7 -3 4 -7 -8 -7 -47 25 -47 39 0 17 22 7 27 -12z m-292 -30 c3 -5
1 -10 -4 -10 -6 0 -11 5 -11 10 0 6 2 10 4 10 3 0 8 -4 11 -10z m96 -8 c-9 -3
-6 -11 11 -26 13 -11 19 -18 12 -13 -6 4 -20 5 -30 1 -14 -4 -16 -3 -5 4 9 7
10 11 2 13 -7 3 -9 12 -6 22 4 9 12 14 18 10 8 -5 7 -8 -2 -11z m1497 -4 l34
-15 -54 -27 c-29 -15 -58 -34 -64 -42 -9 -12 -33 -13 -125 -9 -62 4 -115 7
-116 9 -2 1 39 25 90 53 83 46 97 51 147 48 30 -1 70 -9 88 -17z m-2354 -27
c12 -19 -13 -61 -36 -61 -21 0 -68 35 -68 51 0 4 19 10 43 12 23 2 45 4 49 5
4 1 9 -2 12 -7z m306 -1 c0 -5 -5 -10 -12 -10 -6 0 -9 -2 -6 -5 8 -9 38 6 32
16 -3 5 6 9 19 9 29 0 47 -39 19 -41 -10 0 -27 -2 -40 -3 -24 -3 -62 19 -62
35 0 5 11 9 25 9 14 0 25 -4 25 -10z m880 -62 c0 -29 -4 -48 -9 -42 -8 8 -3
94 5 94 2 0 4 -23 4 -52z m1353 21 c32 -13 54 -16 65 -10 18 9 92 -14 92 -29
0 -14 -59 -32 -87 -27 -18 3 -38 -3 -62 -19 -20 -13 -41 -24 -48 -24 -7 0 -13
-7 -13 -15 0 -18 -16 -19 -59 -4 -25 9 -31 17 -31 39 0 15 -7 33 -15 40 -18
15 -9 35 30 60 32 21 48 19 128 -11z m-1553 -20 c0 -5 -7 -9 -15 -9 -9 0 -15
9 -15 21 0 18 2 19 15 9 8 -7 15 -16 15 -21z m1100 -44 c0 -2 -13 1 -30 6 -16
6 -30 15 -30 20 0 5 14 3 30 -6 17 -9 30 -17 30 -20z m665 5 c3 -5 -8 -16 -24
-25 -42 -21 -48 -19 -21 10 25 27 35 30 45 15z m-2997 -16 c36 -25 28 -44 -18
-44 -30 0 -38 3 -34 14 4 11 0 13 -14 9 -21 -5 -37 11 -27 27 9 15 68 12 93
-6z m504 -43 c23 -2 -28 -30 -203 -111 -173 -81 -194 -86 -232 -58 -15 11 -10
13 36 14 44 0 64 7 108 34 30 19 63 43 74 54 11 10 38 30 61 45 37 24 79 30
156 22z m1776 -10 c2 -6 -2 -11 -9 -11 -10 0 -10 -3 -1 -12 8 -8 15 -8 25 0
10 9 23 7 53 -8 85 -44 104 -45 172 -11 48 24 66 29 79 21 10 -6 48 -21 85
-33 l67 -23 -56 -34 c-31 -19 -65 -33 -77 -32 -12 1 -35 -7 -51 -17 -29 -17
-32 -17 -83 0 -29 10 -50 14 -47 9 10 -16 -27 -11 -60 8 -16 9 -30 24 -30 32
0 17 -123 105 -133 95 -7 -6 8 -21 74 -73 26 -21 27 -23 7 -18 -20 3 -21 2
-12 -16 10 -18 8 -19 -13 -13 -12 4 -53 21 -90 38 -56 24 -68 34 -68 53 0 34
61 64 120 59 24 -2 46 -8 48 -14z m-2094 -11 c14 -5 30 -19 37 -31 10 -20 9
-25 -11 -41 -26 -21 -62 -23 -125 -7 -49 12 -68 29 -60 51 13 34 103 50 159
28z m460 -15 c4 -11 20 -15 55 -15 27 0 52 -4 55 -8 3 -4 23 -8 45 -7 22 1 37
-3 35 -7 -3 -4 -19 -8 -35 -8 -18 0 -124 -48 -276 -125 -135 -69 -250 -122
-256 -118 -5 3 -8 2 -5 -3 3 -5 -1 -22 -9 -39 l-13 -30 2 40 c2 28 -1 39 -9
37 -7 -1 -22 7 -33 18 -18 18 -44 25 -77 21 -8 -1 -10 5 -7 14 3 8 10 15 15
15 4 0 68 30 141 66 130 65 347 163 359 164 4 0 9 -7 13 -15z m1385 -86 c177
-79 271 -128 271 -143 0 -17 -331 -206 -361 -206 -16 0 -147 59 -302 136 -70
35 -130 64 -132 64 -3 0 -4 -24 -2 -52 4 -59 20 -91 54 -109 13 -7 23 -16 23
-21 0 -5 4 -7 8 -4 9 5 18 -10 40 -66 9 -21 8 -29 -1 -35 -13 -8 -423 -22
-467 -15 l-28 4 36 34 c20 19 42 34 49 34 7 0 13 5 13 10 0 6 5 10 10 10 13 0
32 14 69 52 24 23 27 32 22 70 -6 43 -7 43 -91 86 -47 23 -157 76 -244 117
-106 50 -149 74 -128 72 18 -1 32 -6 32 -10 0 -5 5 -5 11 -2 5 4 19 -1 29 -10
11 -10 26 -15 34 -12 9 4 18 2 20 -2 6 -8 80 -25 104 -24 8 1 11 -5 7 -14 -4
-13 -3 -14 9 -4 11 10 24 8 58 -7 78 -36 173 -72 205 -78 36 -7 130 21 150 44
6 8 16 11 22 7 6 -3 11 -2 11 4 0 5 17 15 38 21 20 7 48 19 60 27 13 8 26 12
29 10 2 -3 37 10 76 29 97 46 125 45 266 -17z m-1175 -144 c16 -9 36 -13 45
-10 11 3 29 -10 54 -39 41 -50 40 -54 -28 -96 -28 -17 -47 -21 -83 -18 -54 5
-209 70 -227 94 -10 15 -4 21 49 50 69 38 141 45 190 19z m-623 -78 c-10 -9
-11 -8 -5 6 3 10 9 15 12 12 3 -3 0 -11 -7 -18z m252 -2 c-4 -15 -66 -12 -71
3 -3 10 6 13 34 10 22 -2 38 -7 37 -13z m66 -24 c7 -5 10 -14 7 -20 -9 -14
-46 -14 -66 -1 -13 9 -13 11 0 20 19 12 41 12 59 1z m85 -41 c13 -12 -2 -30
-25 -30 -11 0 -30 5 -41 11 -21 11 -21 12 -3 25 18 14 51 10 69 -6z m83 -47
c6 -17 -33 -26 -58 -12 -17 9 -19 13 -8 20 19 12 61 7 66 -8z m75 -146 l43 -4
-50 -1 c-44 -1 -65 6 -166 61 -174 93 -185 107 -17 23 96 -49 162 -76 190 -79z
m-32 114 c0 -5 9 -7 20 -4 29 8 25 -6 -6 -17 -28 -11 -69 4 -59 21 8 12 45 12
45 0z m89 -30 c17 -11 6 -31 -19 -31 -43 0 -67 24 -32 33 28 8 36 7 51 -2z"/>
<path d="M3480 2470 c0 -47 4 -80 10 -80 6 0 10 30 10 70 0 39 3 70 8 70 21
-1 89 -31 110 -49 21 -18 23 -27 20 -97 -2 -49 -7 -79 -15 -81 -9 -3 -10 4 -2
29 26 92 2 148 -63 151 -32 2 -33 1 -35 -38 0 -22 1 -30 4 -19 2 12 12 29 22
38 26 23 61 -3 58 -44 -2 -34 -11 -38 -26 -12 -6 9 -11 13 -11 8 0 -5 7 -17
16 -27 12 -13 12 -19 3 -25 -8 -5 -10 -3 -4 7 7 11 6 12 -7 2 -8 -7 -19 -9
-23 -5 -5 4 -5 1 -1 -6 5 -7 10 -11 13 -8 11 11 32 -24 35 -58 2 -38 16 -50
39 -35 9 5 16 35 19 91 8 113 5 121 -43 144 -64 32 -117 54 -127 54 -6 0 -10
-35 -10 -80z"/>
<path d="M3053 2485 c0 -8 4 -12 9 -9 5 3 6 10 3 15 -9 13 -12 11 -12 -6z"/>
<path d="M2957 2403 c-4 -3 -7 -11 -7 -17 0 -6 5 -5 12 2 6 6 9 14 7 17 -3 3
-9 2 -12 -2z"/>
<path d="M2976 2365 c-3 -9 0 -15 9 -15 8 0 15 7 15 15 0 8 -4 15 -9 15 -5 0
-11 -7 -15 -15z"/>
<path d="M2567 2148 c4 -7 8 -20 8 -28 0 -8 8 -15 18 -14 59 3 67 5 67 20 0
10 -6 13 -18 10 -10 -4 -27 1 -38 9 -24 18 -48 20 -37 3z"/>
<path d="M2342 1695 c0 -16 2 -22 5 -12 2 9 2 23 0 30 -3 6 -5 -1 -5 -18z"/>
<path d="M4176 1834 c-9 -23 -7 -79 3 -107 15 -38 70 -96 113 -118 55 -28 47
-15 -16 25 -47 30 -56 41 -71 89 -10 31 -15 72 -13 91 4 37 -5 48 -16 20z"/>
<path d="M4046 1755 c-15 -11 -16 -15 -5 -15 8 0 24 7 35 15 14 11 15 14 4 14
-8 0 -24 -6 -34 -14z"/>
<path d="M4268 1741 l-33 -29 21 -29 c27 -36 79 -52 101 -31 11 12 12 17 2 23
-7 5 -10 4 -5 -3 9 -15 -14 -27 -25 -13 -5 6 -6 9 -3 6 6 -4 34 39 34 53 0 2
-12 -7 -26 -22 -39 -38 -59 -35 -38 7 9 17 22 35 28 39 6 5 7 8 1 8 -5 0 -3 5
5 10 12 8 11 10 -7 10 -13 0 -37 -13 -55 -29z"/>
<path d="M4430 1687 c-19 -28 -33 -56 -32 -60 1 -5 -1 -6 -6 -3 -5 3 -22 1
-38 -3 -24 -7 -26 -10 -11 -16 24 -10 67 3 67 20 0 8 4 15 10 15 5 0 6 -8 3
-17 -6 -16 -5 -16 11 -4 9 8 15 23 13 32 -3 10 1 20 8 22 9 4 21 68 12 67 -1
0 -18 -24 -37 -53z"/>
<path d="M4100 1698 c0 -24 27 -48 53 -47 21 1 21 1 -1 8 -13 3 -30 17 -37 31
-10 18 -14 20 -15 8z"/>
<path d="M2810 1632 c1 -9 162 -73 168 -67 3 2 -17 14 -44 26 -76 33 -124 49
-124 41z"/>
<path d="M3320 1413 c8 -3 24 -10 35 -15 20 -9 20 -9 1 6 -11 9 -27 16 -35 15
-14 0 -14 -1 -1 -6z"/>
<path d="M1621 1508 c-1 -30 2 -36 14 -32 10 4 12 10 6 18 -5 6 -11 20 -14 31
-3 12 -5 4 -6 -17z"/>
<path d="M1665 1520 c3 -5 8 -10 11 -10 2 0 4 5 4 10 0 6 -5 10 -11 10 -5 0
-7 -4 -4 -10z"/>
<path d="M1879 1410 c24 -11 46 -20 50 -20 12 1 -64 39 -79 39 -8 0 5 -8 29
-19z"/>
<path d="M4876 1372 c-3 -5 1 -9 9 -9 8 0 12 4 9 9 -3 4 -7 8 -9 8 -2 0 -6 -4
-9 -8z"/>
<path d="M4008 874 c-26 -13 -50 -29 -54 -35 -4 -8 -1 -8 12 -1 40 21 116 7
216 -38 54 -25 97 -49 97 -55 1 -14 -149 -97 -174 -97 -11 0 -49 14 -84 31
-73 35 -78 36 -62 18 6 -8 9 -16 6 -19 -2 -2 30 -21 73 -42 l78 -38 89 49 c50
26 111 59 138 72 26 13 45 26 43 29 -4 3 -182 85 -301 137 -27 12 -35 11 -77
-11z"/>
<path d="M4028 769 c-14 -8 -15 -14 -6 -34 10 -23 17 -25 75 -25 63 0 63 0 63
29 0 24 -5 30 -27 34 -48 8 -73 6 -73 -6 0 -9 -2 -9 -8 0 -5 8 -13 8 -24 2z"/>
</g>
</svg>
